# xmcd
#
# Track frame offsets:
#	150
#	15140
#	25203
#	47868
#	58878
#	72445
#	83540
#	95353
#	106318
#	119215
#	134020
#	148445
#	163155
#	172488
#
# Disc length: 2484 seconds
#
# Revision: 0
# Processed by: cddbd v1.4PL0 Copyright (c) Steve Scherf et al.
# Submitted via: EasyCDDAExtractor 4.6.9.1
#
DISCID=d409b20e
DTITLE=Black Hills Country Band - All-In
DYEAR=1900
DGENRE=Country
TTITLE0=Whatever Way The Wind Blows
TTITLE1=Chattahoochee
TTITLE2=Waiting For The Days To Come
TTITLE3=Blue Ridge Mountain Blues
TTITLE4=Shopping For Dresses
TTITLE5=Texanita
TTITLE6=Have A Drink On Me
TTITLE7=Walking After Midnight
TTITLE8=Walking After Midnight
TTITLE9=Not Too Much To Ask
TTITLE10=Don't Make Me Blue
TTITLE11=I Feel Lucky
TTITLE12=Loving Cajun Style
TTITLE13=Two More Bottles Of Wine
EXTD=
EXTT0=
EXTT1=
EXTT2=
EXTT3=
EXTT4=
EXTT5=
EXTT6=
EXTT7=
EXTT8=
EXTT9=
EXTT10=
EXTT11=
EXTT12=
EXTT13=
PLAYORDER=
